<svg width="24" height="24" viewBox="0 0 24 24" fill="none" xmlns="http://www.w3.org/2000/svg">
<path d="M12.0001 4C10.2837 4 8.6946 4.54187 7.39167 5.46191C7.35518 5.48763 7.31831 5.51277 7.2823 5.53906C7.23125 5.5764 7.18105 5.61481 7.13093 5.65332C7.08197 5.69088 7.03344 5.72894 6.98542 5.76758C6.95117 5.79517 6.91667 5.82244 6.88288 5.85059C6.80867 5.91234 6.73595 5.97575 6.66413 6.04004C6.625 6.0751 6.58635 6.11067 6.54792 6.14648C6.49415 6.19656 6.44107 6.24733 6.38874 6.29883C6.34674 6.34017 6.3058 6.38255 6.26472 6.4248C6.22667 6.46394 6.18866 6.50308 6.15144 6.54297C6.10978 6.5876 6.06805 6.63216 6.02741 6.67773C5.98686 6.72324 5.94777 6.77 5.90827 6.81641C5.87744 6.85261 5.8457 6.88805 5.8155 6.9248C5.74771 7.00741 5.6817 7.09149 5.61726 7.17676C5.58367 7.22114 5.5513 7.26643 5.51863 7.31152C5.48676 7.35557 5.45487 7.39963 5.4239 7.44434C5.38901 7.49461 5.35512 7.54558 5.32136 7.59668C5.29477 7.637 5.2691 7.67793 5.24323 7.71875C5.11254 7.92458 4.99081 8.13648 4.87898 8.35449C4.86764 8.37664 4.85594 8.39863 4.8448 8.4209C4.51017 9.08858 4.26607 9.80919 4.12898 10.5674C4.12365 10.5966 4.11933 10.626 4.11433 10.6553C4.10214 10.7273 4.0904 10.7994 4.08015 10.8721C4.07315 10.9211 4.06768 10.9704 4.06159 11.0195C4.05401 11.0816 4.04529 11.1436 4.03913 11.2061C3.98832 11.7143 3.98698 12.2274 4.03425 12.7383C4.0396 12.7968 4.0462 12.855 4.0528 12.9131C4.05946 12.9711 4.06636 13.029 4.07429 13.0869C4.10776 13.3333 4.15368 13.5757 4.20905 13.8145C4.21056 13.8209 4.21144 13.8275 4.21296 13.834C4.23433 13.9251 4.25687 14.0156 4.28132 14.1055C4.28935 14.1349 4.29835 14.164 4.30671 14.1934C4.37846 14.4455 4.46248 14.6923 4.55769 14.9336C4.5637 14.9488 4.56917 14.9643 4.57527 14.9795C4.60626 15.0566 4.63864 15.133 4.67195 15.209C4.68639 15.242 4.70101 15.2748 4.71589 15.3076C4.81176 15.5184 4.91622 15.7243 5.02937 15.9248C5.0587 15.9769 5.08871 16.0286 5.11921 16.0801C5.1455 16.1243 5.17218 16.1682 5.19929 16.2119C5.23689 16.2726 5.27529 16.3329 5.31452 16.3926C5.33906 16.4298 5.3636 16.4671 5.38874 16.5039C5.45089 16.5952 5.51419 16.6857 5.58015 16.7744C5.59318 16.7919 5.60702 16.8088 5.62019 16.8262C5.68057 16.906 5.7423 16.9849 5.80573 17.0625C5.82255 17.0831 5.84048 17.1027 5.85749 17.123C6.01123 17.3074 6.17215 17.4865 6.34284 17.6572C6.51323 17.8276 6.69206 17.9881 6.87605 18.1416C6.89642 18.1586 6.91605 18.1765 6.93659 18.1934C7.00846 18.2521 7.08159 18.3091 7.15534 18.3652C7.17859 18.383 7.20123 18.4015 7.22468 18.4189C7.31338 18.4849 7.40395 18.5482 7.49519 18.6104C7.53202 18.6355 7.56925 18.66 7.60652 18.6846C7.66624 18.7238 7.72646 18.7622 7.78718 18.7998C7.83085 18.8269 7.87479 18.8536 7.91902 18.8799C7.97046 18.9104 8.02218 18.9404 8.07429 18.9697C8.27292 19.0818 8.47691 19.1851 8.68562 19.2803C8.72036 19.2961 8.75513 19.3118 8.79011 19.3271C8.85965 19.3577 8.92952 19.3874 9.00007 19.416C9.02176 19.4248 9.04373 19.4328 9.0655 19.4414C9.30683 19.5367 9.55358 19.6206 9.80573 19.6924C9.83505 19.7007 9.8642 19.7097 9.89363 19.7178C9.97219 19.7392 10.0514 19.7583 10.1309 19.7773C10.1488 19.7816 10.1667 19.7859 10.1846 19.79C10.3463 19.8276 10.5096 19.8611 10.6749 19.8887C10.6944 19.892 10.7138 19.8963 10.7334 19.8994C10.7928 19.9089 10.8524 19.9167 10.9122 19.9248C10.97 19.9327 11.028 19.9396 11.086 19.9463C11.1441 19.9529 11.2023 19.9595 11.2608 19.9648C11.5005 19.9871 11.7406 19.9985 11.9805 19.999C11.987 19.999 11.9936 20 12.0001 20C12.0108 20 12.0215 19.9991 12.0323 19.999C12.1496 19.9985 12.2668 19.9949 12.3838 19.9893C12.3982 19.9886 12.4125 19.9881 12.4268 19.9873C12.5488 19.9808 12.6705 19.9721 12.792 19.96C12.8624 19.953 12.9322 19.9443 13.002 19.9355C13.0329 19.9316 13.0639 19.9281 13.0948 19.9238C13.1736 19.913 13.252 19.9008 13.3301 19.8877C13.364 19.882 13.3979 19.8763 13.4317 19.8701C14.19 19.7331 14.9104 19.4889 15.5782 19.1543C15.6004 19.1432 15.6224 19.1315 15.6446 19.1201C15.877 19.0009 16.1028 18.8711 16.3213 18.7305C16.3425 18.7169 16.3637 18.7033 16.3848 18.6895C16.4491 18.6472 16.5123 18.6036 16.5752 18.5596C16.6007 18.5418 16.6261 18.5239 16.6514 18.5059C16.8476 18.3653 17.0374 18.2168 17.2198 18.0596C17.2537 18.0303 17.2879 18.0015 17.3213 17.9717C17.3669 17.931 17.4115 17.8893 17.4561 17.8477C17.496 17.8104 17.5351 17.7724 17.5743 17.7344C17.6165 17.6933 17.6589 17.6524 17.7002 17.6104C17.754 17.5557 17.8072 17.5005 17.8594 17.4443C17.893 17.4082 17.9261 17.3717 17.959 17.335C18.0233 17.2631 18.0867 17.1904 18.1485 17.1162C18.1812 17.0769 18.2132 17.037 18.2452 16.9971C18.285 16.9473 18.3237 16.8965 18.3624 16.8457C18.3901 16.8093 18.4182 16.7732 18.4454 16.7363C18.4851 16.6822 18.5241 16.6275 18.5626 16.5723C19.3938 15.3814 19.911 13.9551 19.9893 12.4121L20.0001 12H22.0001C22.0001 13.9778 21.4133 15.9112 20.3145 17.5557C19.2157 19.2001 17.6544 20.4824 15.8272 21.2393L15.4825 21.374C13.7488 22.0181 11.8675 22.1694 10.0489 21.8076C8.23041 21.4458 6.55053 20.5865 5.19538 19.3281L4.92878 19.0713C3.61764 17.7601 2.69923 16.1118 2.27155 14.3125L2.19245 13.9512C1.8066 12.0114 2.00394 10.0001 2.76081 8.17285C3.47045 6.45971 4.64196 4.98015 6.1407 3.89648L6.44441 3.68555C8.08889 2.58675 10.0223 2 12.0001 2V4Z" fill="black"/>
<path d="M18 12C18 12.7879 17.8445 13.568 17.543 14.2959C17.2414 15.0238 16.7993 15.6851 16.2422 16.2422C15.6851 16.7993 15.0238 17.2415 14.2959 17.543C13.568 17.8444 12.7878 18 12 18V16C13.1906 16 14.2585 15.4788 14.9912 14.6533C15.0035 14.6395 15.0153 14.6253 15.0273 14.6113C15.6325 13.9104 16 12.9986 16 12H18Z" fill="black"/>
<path d="M12 14C13.1046 14 14 13.1046 14 12C14 10.8954 13.1046 10 12 10C10.8954 10 10 10.8954 10 12C10 13.1046 10.8954 14 12 14Z" fill="black"/>
<path d="M15.691 8H14.5C14.2239 8 14 7.77614 14 7.5V4.26759C14 4.10042 14.0836 3.9443 14.2226 3.85157L15.374 3.08397C15.4562 3.02922 15.5527 3 15.6514 3H20.5C20.7761 3 21 3.22386 21 3.5V7V7.79289C21 7.9255 20.9473 8.05268 20.8536 8.14645L19.1464 9.85355C19.0527 9.94732 18.9255 10 18.7929 10H16.309C15.9373 10 15.6956 9.60884 15.8618 9.27639L16.1382 8.72361C16.3044 8.39116 16.0627 8 15.691 8Z" stroke="black" stroke-width="2"/>
</svg>
