<svg width="256" height="256" viewBox="0 0 256 256" fill="none" xmlns="http://www.w3.org/2000/svg">
<mask id="mask0_600_46" style="mask-type:alpha" maskUnits="userSpaceOnUse" x="36" y="36" width="184" height="184">
<rect x="36" y="36" width="183.451" height="183.451" fill="#D9D9D9"/>
</mask>
<g mask="url(#mask0_600_46)">
<path d="M127.722 161.829C128.969 161.829 129.965 161.457 130.711 160.714C131.455 159.972 131.827 158.977 131.827 157.731C131.827 156.484 131.455 155.488 130.712 154.743C129.97 153.999 128.975 153.627 127.729 153.627C126.482 153.627 125.486 153.998 124.741 154.741C123.997 155.484 123.625 156.478 123.625 157.724C123.625 158.971 123.996 159.967 124.739 160.713C125.482 161.457 126.476 161.829 127.722 161.829ZM125.066 137.149H130.946V90.1239H125.066V137.149ZM127.802 196.52C118.224 196.52 109.288 194.715 100.993 191.104C92.6973 187.494 85.4197 182.562 79.1607 176.31C72.9017 170.057 67.9657 162.782 64.3528 154.485C60.7385 146.186 58.9314 137.243 58.9314 127.655C58.9314 118.165 60.7366 109.243 64.347 100.888C67.9575 92.5349 72.889 85.2605 79.1416 79.0652C85.3943 72.8699 92.6693 67.9657 100.967 64.3528C109.265 60.7385 118.208 58.9314 127.796 58.9314C137.286 58.9314 146.208 60.7366 154.563 64.347C162.917 67.9575 170.191 72.8571 176.386 79.0461C182.581 85.235 187.486 92.5132 191.099 100.881C194.713 109.247 196.52 118.17 196.52 127.649C196.52 137.227 194.715 146.163 191.104 154.458C187.494 162.754 182.594 170.02 176.405 176.256C170.216 182.491 162.938 187.427 154.571 191.064C146.205 194.701 137.282 196.52 127.802 196.52ZM127.821 190.64C145.259 190.64 160.089 184.522 172.31 172.287C184.53 160.052 190.64 145.166 190.64 127.63C190.64 110.192 184.542 95.3624 172.346 83.1413C160.149 70.9213 145.276 64.8114 127.726 64.8114C110.253 64.8114 95.3994 70.9092 83.1642 83.1049C70.929 95.3019 64.8114 110.175 64.8114 127.726C64.8114 145.198 70.929 160.052 83.1642 172.287C95.3994 184.522 110.285 190.64 127.821 190.64Z" fill="url(#paint0_radial_600_46)"/>
</g>
<defs>
<radialGradient id="paint0_radial_600_46" cx="0" cy="0" r="1" gradientUnits="userSpaceOnUse" gradientTransform="translate(127.726 127.726) rotate(90) scale(68.7943)">
<stop offset="0.615" stop-color="#516527"/>
<stop offset="0.715" stop-color="#D3EC9E"/>
</radialGradient>
</defs>
</svg>
