<!-- Exported by Character Map UWP -->
<svg height="100%" viewBox="0 0 1024 1024" width="100%" xmlns="http://www.w3.org/2000/svg" xmlns:xlink="http://www.w3.org/1999/xlink">
  <path d="M151,1024C131,1024 111.833,1019.92 93.5,1011.75C75.1667,1003.58 59.0833,992.583 45.25,978.75C31.4167,964.917 20.4167,948.833 12.25,930.5C4.08333,912.167 0,893 0,873L0,151C0,131 4.08333,111.833 12.25,93.5C20.4167,75.1667 31.4167,59.0834 45.25,45.25C59.0833,31.4167 75.1667,20.4167 93.5,12.25C111.833,4.08337 131,0 151,0L873,0C893,0 912.167,4.08337 930.5,12.25C948.833,20.4167 964.917,31.4167 978.75,45.25C992.583,59.0834 1003.58,75.1667 1011.75,93.5C1019.92,111.833 1024,131 1024,151L1024,873C1024,893 1019.92,912.167 1011.75,930.5C1003.58,948.833 992.583,964.917 978.75,978.75C964.917,992.583 948.833,1003.58 930.5,1011.75C912.167,1019.92 893,1024 873,1024ZM870.5,921.5C877.5,921.5 884.083,920.167 890.25,917.5C896.417,914.833 901.833,911.167 906.5,906.5C911.167,901.833 914.833,896.417 917.5,890.25C920.167,884.083 921.5,877.5 921.5,870.5L921.5,153.5C921.5,146.5 920.167,139.917 917.5,133.75C914.833,127.583 911.167,122.167 906.5,117.5C901.833,112.833 896.417,109.167 890.25,106.5C884.083,103.833 877.5,102.5 870.5,102.5L153.5,102.5C146.5,102.5 139.917,103.833 133.75,106.5C127.583,109.167 122.167,112.833 117.5,117.5C112.833,122.167 109.167,127.583 106.5,133.75C103.833,139.917 102.5,146.5 102.5,153.5L102.5,870.5C102.5,877.5 103.833,884.083 106.5,890.25C109.167,896.417 112.833,901.833 117.5,906.5C122.167,911.167 127.583,914.833 133.75,917.5C139.917,920.167 146.5,921.5 153.5,921.5Z" fill="#FFFFFF" fill-opacity="1">
  </path>
</svg>