<!-- Exported by Character Map UWP -->
<svg height="100%" viewBox="0 0 1024 1024" width="100%" xmlns="http://www.w3.org/2000/svg" xmlns:xlink="http://www.w3.org/1999/xlink">
  <path d="M921.5,303.5C921.5,275.833 916,249.75 905,225.25C894,200.75 879.083,179.417 860.25,161.25C841.417,143.083 819.583,128.75 794.75,118.25C769.917,107.75 743.833,102.5 716.5,102.5L213.5,102.5C218.833,87.1667 226.333,73.1667 236,60.5C245.667,47.8334 256.833,37.0001 269.5,28C282.167,19.0001 296.083,12.0834 311.25,7.25C326.417,2.41669 342.167,0 358.5,0L716.5,0C758.833,0 798.667,8.08337 836,24.25C873.333,40.4167 905.917,62.3334 933.75,90C961.583,117.667 983.583,150.167 999.75,187.5C1015.92,224.833 1024,264.667 1024,307L1024,665.5C1024,681.833 1021.58,697.583 1016.75,712.75C1011.92,727.917 1005,741.833 996,754.5C987,767.167 976.167,778.333 963.5,788C950.833,797.667 936.833,805.167 921.5,810.5ZM151,1024C131,1024 111.833,1019.92 93.5,1011.75C75.1667,1003.58 59.0833,992.583 45.25,978.75C31.4167,964.917 20.4167,948.833 12.25,930.5C4.08333,912.167 0,893 0,873L0,356C0,335.667 4.08333,316.417 12.25,298.25C20.4167,280.083 31.4167,264.083 45.25,250.25C59.0833,236.417 75.0833,225.417 93.25,217.25C111.417,209.083 130.667,205 151,205L668,205C688.333,205 707.667,209.083 726,217.25C744.333,225.417 760.333,236.333 774,250C787.667,263.667 798.583,279.667 806.75,298C814.917,316.333 819,335.667 819,356L819,873C819,893.333 814.917,912.583 806.75,930.75C798.583,948.917 787.583,964.917 773.75,978.75C759.917,992.583 743.917,1003.58 725.75,1011.75C707.583,1019.92 688.333,1024 668,1024ZM665.5,921.5C672.5,921.5 679.083,920.167 685.25,917.5C691.417,914.833 696.917,911.167 701.75,906.5C706.583,901.833 710.333,896.417 713,890.25C715.667,884.083 717,877.5 717,870.5L717,358.5C717,351.5 715.667,344.833 713,338.5C710.333,332.167 706.667,326.667 702,322C697.333,317.333 691.833,313.667 685.5,311C679.167,308.333 672.5,307 665.5,307L153.5,307C146.5,307 139.917,308.333 133.75,311C127.583,313.667 122.167,317.417 117.5,322.25C112.833,327.083 109.167,332.583 106.5,338.75C103.833,344.917 102.5,351.5 102.5,358.5L102.5,870.5C102.5,877.5 103.833,884.083 106.5,890.25C109.167,896.417 112.833,901.833 117.5,906.5C122.167,911.167 127.583,914.833 133.75,917.5C139.917,920.167 146.5,921.5 153.5,921.5Z" fill="#FFFFFF" fill-opacity="1">
  </path>
</svg>