<!-- Exported by Character Map UWP -->
<svg height="100%" viewBox="0 410 1024 103" width="100%" xmlns="http://www.w3.org/2000/svg" xmlns:xlink="http://www.w3.org/1999/xlink">
  <path d="M51,512C44,512 37.4167,510.667 31.25,508C25.0833,505.333 19.6667,501.667 15,497C10.3333,492.333 6.66667,486.917 4,480.75C1.33333,474.583 0,468 0,461C0,454 1.33333,447.417 4,441.25C6.66667,435.083 10.3333,429.583 15,424.75C19.6667,419.917 25.0833,416.167 31.25,413.5C37.4167,410.833 44,409.5 51,409.5L973,409.5C980,409.5 986.583,410.833 992.75,413.5C998.917,416.167 1004.33,419.917 1009,424.75C1013.67,429.583 1017.33,435.083 1020,441.25C1022.67,447.417 1024,454 1024,461C1024,468 1022.67,474.583 1020,480.75C1017.33,486.917 1013.67,492.333 1009,497C1004.33,501.667 998.917,505.333 992.75,508C986.583,510.667 980,512 973,512Z" fill="#FFFFFF" fill-opacity="1">
  </path>
</svg>