<svg width="100" height="100" viewBox="0 0 100 100" fill="none" xmlns="http://www.w3.org/2000/svg">
<path d="M12.6335 85V46.1701H0V37.0936H12.6335V34.4813C12.6335 31.323 13.1376 28.5336 14.1459 26.1132C15.1542 23.6928 16.5925 21.6561 18.4609 20.0032C20.3292 18.3502 22.5979 17.1105 25.2669 16.284C27.9359 15.428 30.9164 15 34.2082 15C35.2461 15 36.2396 15.0443 37.1886 15.1328C38.1673 15.1919 39.1163 15.2804 40.0356 15.3985C40.9549 15.5166 41.8743 15.6494 42.7936 15.797C43.7426 15.9445 44.7212 16.1069 45.7295 16.284L44.9288 25.9361C43.8019 25.7 42.5267 25.4934 41.1032 25.3163C39.6797 25.1392 38.0042 25.0506 36.0765 25.0506C34.0006 25.0506 32.2361 25.2867 30.7829 25.759C29.3298 26.2313 28.1732 26.9249 27.3132 27.84C26.5421 28.6074 25.9638 29.552 25.5783 30.6736C25.2224 31.7953 25.0445 33.0645 25.0445 34.4813V37.0936H42.3932V46.1701H25.0445V85H12.6335Z" fill="url(#paint0_linear_986_2)"/>
<path d="M63.0783 37.0936L63.4342 42.8937C64.3535 40.8275 65.6139 39.2041 67.2153 38.0234C68.8464 36.8132 70.8185 36.2081 73.1317 36.2081C74.2586 36.2081 75.2669 36.3409 76.1566 36.6066C77.0463 36.8722 77.8173 37.2855 78.4697 37.8463C78.9739 38.2595 79.4039 38.7613 79.7598 39.3517C80.1453 39.9125 80.4715 40.5619 80.7384 41.2998C81.1536 40.5914 81.6133 39.9568 82.1174 39.396C82.6512 38.8056 83.2295 38.3038 83.8523 37.8906C84.6234 37.3593 85.4982 36.946 86.4769 36.6509C87.4555 36.3557 88.5231 36.2081 89.6797 36.2081C91.1329 36.2081 92.4822 36.4738 93.7278 37.0051C95.003 37.5364 96.1151 38.3776 97.0641 39.5288C97.9834 40.7095 98.6951 42.2296 99.1993 44.0892C99.7331 45.9192 100 48.1626 100 50.8191V85H88.7456V50.7748C88.7456 49.8598 88.6418 49.1071 88.4342 48.5168C88.2562 47.9264 88.0042 47.4541 87.6779 47.0999C87.3517 46.7752 86.9662 46.5539 86.5214 46.4358C86.1062 46.2882 85.6762 46.2144 85.2313 46.2144C84.7568 46.2144 84.3268 46.2735 83.9413 46.3915C83.5854 46.5096 83.2444 46.6719 82.9182 46.8786C82.6512 47.0852 82.414 47.3213 82.2064 47.587C81.9988 47.8231 81.8209 48.1035 81.6726 48.4282C81.6726 48.4872 81.6726 48.6201 81.6726 48.8267C81.6726 49.0333 81.6726 49.3137 81.6726 49.6679V85H70.774V50.7305C70.774 49.8155 70.6851 49.0628 70.5071 48.4725C70.3292 47.8821 70.0919 47.4246 69.7954 47.0999C69.4692 46.7752 69.0985 46.5539 68.6833 46.4358C68.2681 46.2882 67.8232 46.2144 67.3488 46.2144C66.8149 46.2144 66.3405 46.303 65.9253 46.4801C65.5101 46.6572 65.1394 46.9081 64.8132 47.2328C64.5759 47.4689 64.3683 47.7493 64.1904 48.074C64.0125 48.3987 63.8493 48.7529 63.7011 49.1366V85H52.4466V37.0936H63.0783Z" fill="url(#paint1_linear_986_2)"/>
<defs>
<linearGradient id="paint0_linear_986_2" x1="18" y1="28" x2="94" y2="79.5" gradientUnits="userSpaceOnUse">
<stop stop-color="#DFFF93"/>
<stop offset="1" stop-color="#77F8F4"/>
</linearGradient>
<linearGradient id="paint1_linear_986_2" x1="18" y1="28" x2="94" y2="79.5" gradientUnits="userSpaceOnUse">
<stop stop-color="#DFFF93"/>
<stop offset="1" stop-color="#77F8F4"/>
</linearGradient>
</defs>
</svg>
