<svg width="450" height="150" viewBox="0 0 450 150" fill="none" xmlns="http://www.w3.org/2000/svg">
<g clip-path="url(#clip0_1024_89)">
<g opacity="0.3">
<rect x="206.5" y="-26.5" width="307" height="275" rx="8.5" stroke="url(#paint0_linear_1024_89)"/>
<g opacity="0.2">
<rect x="219.5" y="33.5" width="65" height="45" rx="5.5" stroke="white"/>
<rect x="363.5" y="33.5" width="65" height="45" rx="5.5" stroke="white"/>
<rect x="291.5" y="33.5" width="65" height="45" rx="5.5" stroke="white"/>
<rect x="435.5" y="33.5" width="65" height="45" rx="5.5" stroke="white"/>
<rect x="219.5" y="85.5" width="65" height="45" rx="5.5" stroke="white"/>
<rect x="363.5" y="85.5" width="65" height="45" rx="5.5" stroke="white"/>
<rect x="291.5" y="85.5" width="65" height="45" rx="5.5" stroke="white"/>
<rect x="435.5" y="85.5" width="65" height="45" rx="5.5" stroke="white"/>
<rect x="219.5" y="137.5" width="65" height="45" rx="5.5" stroke="white"/>
<rect x="363.5" y="137.5" width="65" height="45" rx="5.5" stroke="white"/>
<rect x="291.5" y="137.5" width="65" height="45" rx="5.5" stroke="white"/>
<rect x="435.5" y="137.5" width="65" height="45" rx="5.5" stroke="white"/>
</g>
<rect x="224" y="120" width="56" height="6" rx="3" fill="white" fill-opacity="0.2"/>
<rect x="224" y="120" width="27" height="6" rx="3" fill="white"/>
</g>
<g opacity="0.3">
<rect x="91.5" y="126.5" width="20" height="35" rx="9.5" stroke="white"/>
<rect x="-8.5" y="126.5" width="20" height="35" rx="9.5" stroke="white"/>
<path d="M2.5 126C2.5 112.872 7.71516 100.281 16.9982 90.9982C26.2812 81.7152 38.8718 76.5 52 76.5C65.1282 76.5 77.7187 81.7151 87.0018 90.9982C96.2848 100.281 101.5 112.872 101.5 126" stroke="white"/>
</g>
<g opacity="0.3">
<rect x="-26.5" y="32.5" width="139" height="34" rx="4.5" stroke="white"/>
<circle cx="95" cy="50" r="8.5" stroke="white"/>
<line x1="95" y1="50" x2="95" y2="42" stroke="white" stroke-width="2"/>
<circle cx="3.99996" cy="55" r="4.5" transform="rotate(115.144 3.99996 55)" stroke="white"/>
<line x1="3.99996" y1="55" x2="7.62094" y2="56.6996" stroke="white" stroke-width="2"/>
<circle cx="22.0659" cy="55" r="4.5" transform="rotate(47.1786 22.0659 55)" stroke="white"/>
<line x1="22.0659" y1="55" x2="24.9998" y2="52.2811" stroke="white" stroke-width="2"/>
<path d="M-0.0107422 39.7344L0.393555 41.3369L0.853516 39.7344H1.87598V44H1.12012V42.7373L1.15527 40.7422L0.595703 42.5938H0.188477L-0.3125 40.8213L-0.277344 42.7373V44H-1.0332V39.7344H-0.0107422ZM2.76367 39.7344H5.23047V40.3994H4.39844V43.3379H5.23047V44H2.76367V43.3379H3.5752V40.3994H2.76367V39.7344ZM6.16797 44V39.7344H7.27246C7.46973 39.7344 7.6543 39.7588 7.82617 39.8076C7.99805 39.8545 8.1543 39.9219 8.29492 40.0098C8.41797 40.082 8.52734 40.1709 8.62305 40.2764C8.7207 40.3799 8.80566 40.4932 8.87793 40.6162C8.96191 40.7666 9.02637 40.9326 9.07129 41.1143C9.11816 41.2959 9.1416 41.4893 9.1416 41.6943V42.0459C9.1416 42.2432 9.12012 42.4297 9.07715 42.6055C9.03418 42.7812 8.97363 42.9424 8.89551 43.0889C8.82129 43.2197 8.73438 43.3408 8.63477 43.4521C8.53516 43.5615 8.42578 43.6533 8.30664 43.7275C8.16797 43.8154 8.01465 43.8828 7.84668 43.9297C7.68066 43.9766 7.50293 44 7.31348 44H6.16797ZM6.99707 40.4023V43.3379H7.31348C7.41504 43.3379 7.50977 43.3252 7.59766 43.2998C7.68555 43.2744 7.76562 43.2373 7.83789 43.1885C7.91211 43.1377 7.97852 43.0732 8.03711 42.9951C8.09766 42.915 8.14941 42.8223 8.19238 42.7168C8.22754 42.625 8.25391 42.5234 8.27148 42.4121C8.29102 42.2988 8.30078 42.1768 8.30078 42.0459V41.6885C8.30078 41.5654 8.29102 41.4492 8.27148 41.3398C8.25391 41.2285 8.22754 41.127 8.19238 41.0352C8.14941 40.9258 8.09277 40.8281 8.02246 40.7422C7.9541 40.6562 7.87402 40.5859 7.78223 40.5312C7.71191 40.4902 7.63379 40.459 7.54785 40.4375C7.46387 40.4141 7.37207 40.4023 7.27246 40.4023H6.99707Z" fill="white"/>
<path d="M21.6616 44H20.8472V42.1514H19.6401V44H18.8228V39.7344H19.6401V41.4834H20.8472V39.7344H21.6616V44ZM22.6313 39.7344H25.0981V40.3994H24.2661V43.3379H25.0981V44H22.6313V43.3379H23.4429V40.3994H22.6313V39.7344Z" fill="white"/>
<path d="M60.584 43.7344L60.9883 45.3369L61.4482 43.7344H62.4707V48H61.7148V46.7373L61.75 44.7422L61.1904 46.5938H60.7832L60.2822 44.8213L60.3174 46.7373V48H59.5615V43.7344H60.584ZM65.2744 47.1094H63.9941L63.7422 48H62.875L64.2725 43.7344H65.0195L66.3906 48H65.5234L65.2744 47.1094ZM64.1963 46.4092H65.0811L64.6445 44.8389L64.1963 46.4092ZM68.9951 46.8867C68.9951 46.8105 68.9814 46.7393 68.9541 46.6729C68.9287 46.6064 68.8848 46.5439 68.8223 46.4854C68.7578 46.4287 68.6738 46.377 68.5703 46.3301C68.4688 46.2812 68.3418 46.2363 68.1895 46.1953C67.9531 46.1309 67.7451 46.0527 67.5654 45.9609C67.3877 45.8691 67.2422 45.7686 67.1289 45.6592C67.0156 45.5498 66.9297 45.4287 66.8711 45.2959C66.8145 45.1631 66.7861 45.0186 66.7861 44.8623C66.7861 44.6826 66.8242 44.5195 66.9004 44.373C66.9766 44.2266 67.082 44.1016 67.2168 43.998C67.3516 43.8945 67.5107 43.8154 67.6943 43.7607C67.8779 43.7041 68.0771 43.6758 68.292 43.6758C68.5146 43.6758 68.7178 43.708 68.9014 43.7725C69.0869 43.8369 69.2461 43.9268 69.3789 44.042C69.5117 44.1592 69.6152 44.2979 69.6895 44.458C69.7637 44.6182 69.8008 44.7939 69.8008 44.9854H68.998C68.9941 44.8896 68.9766 44.8018 68.9453 44.7217C68.916 44.6416 68.8721 44.5723 68.8135 44.5137C68.7529 44.457 68.6777 44.4131 68.5879 44.3818C68.5 44.3486 68.3965 44.332 68.2773 44.332C68.168 44.332 68.0703 44.3457 67.9844 44.373C67.9004 44.3984 67.8291 44.4346 67.7705 44.4814C67.7119 44.5303 67.667 44.5879 67.6357 44.6543C67.6064 44.7188 67.5918 44.7891 67.5918 44.8652C67.5918 44.9453 67.6113 45.0176 67.6504 45.082C67.6914 45.1465 67.75 45.2041 67.8262 45.2549C67.9023 45.3076 67.9941 45.3555 68.1016 45.3984C68.2109 45.4414 68.334 45.4814 68.4707 45.5186C68.6172 45.5596 68.7568 45.6094 68.8896 45.668C69.0225 45.7266 69.1445 45.7939 69.2559 45.8701C69.4238 45.9951 69.5576 46.1406 69.6572 46.3066C69.7568 46.4727 69.8066 46.6641 69.8066 46.8809C69.8066 47.0684 69.7686 47.2354 69.6924 47.3818C69.6182 47.5264 69.5146 47.6484 69.3818 47.748C69.249 47.8496 69.0908 47.9268 68.9072 47.9795C68.7236 48.0303 68.5234 48.0557 68.3066 48.0557C68.0938 48.0557 67.8828 48.0244 67.6738 47.9619C67.4668 47.8975 67.2861 47.8037 67.1318 47.6807C66.9854 47.5596 66.8691 47.417 66.7832 47.2529C66.6992 47.0889 66.6572 46.8965 66.6572 46.6758H67.4658C67.4697 46.8047 67.4922 46.915 67.5332 47.0068C67.5742 47.0986 67.6318 47.1738 67.7061 47.2324C67.7783 47.291 67.8652 47.334 67.9668 47.3613C68.0703 47.3887 68.1836 47.4023 68.3066 47.4023C68.416 47.4023 68.5127 47.3896 68.5967 47.3643C68.6826 47.3389 68.7549 47.3037 68.8135 47.2588C68.8721 47.2139 68.917 47.1602 68.9482 47.0977C68.9795 47.0332 68.9951 46.9629 68.9951 46.8867ZM73.5186 44.4053H72.2031V48H71.377V44.4053H70.0791V43.7344H73.5186V44.4053ZM76.6123 46.1309H74.8604V47.335H76.9082V48H74.0342V43.7344H76.8994V44.4053H74.8604V45.4805H76.6123V46.1309ZM79.0381 46.4062H78.4141V48H77.5908V43.7344H79.0205C79.2568 43.7344 79.4707 43.7627 79.6621 43.8193C79.8535 43.874 80.0176 43.9551 80.1543 44.0625C80.2891 44.1699 80.3926 44.3037 80.4648 44.4639C80.5391 44.624 80.5762 44.8096 80.5762 45.0205C80.5762 45.1729 80.5576 45.3105 80.5205 45.4336C80.4854 45.5547 80.4346 45.6631 80.3682 45.7588C80.2998 45.8564 80.2178 45.9414 80.1221 46.0137C80.0283 46.0859 79.9229 46.1484 79.8057 46.2012L80.7227 47.9619V48H79.8408L79.0381 46.4062ZM78.4141 45.7383H79.0234C79.1504 45.7383 79.2617 45.7207 79.3574 45.6855C79.4551 45.6484 79.5342 45.5957 79.5947 45.5273C79.6455 45.4727 79.6836 45.4072 79.709 45.3311C79.7363 45.2549 79.75 45.1699 79.75 45.0762C79.75 44.9629 79.7324 44.8633 79.6973 44.7773C79.6641 44.6895 79.6133 44.6172 79.5449 44.5605C79.4844 44.5098 79.4102 44.4707 79.3223 44.4434C79.2344 44.416 79.1338 44.4023 79.0205 44.4023H78.4141V45.7383ZM60.5693 56L59.2803 51.7344H60.1885L60.9121 54.5205L60.9854 54.8076L61.0645 54.5176L61.791 51.7344H62.6992L61.4072 56H60.5693ZM66.1533 54.1807C66.1533 54.3643 66.1367 54.5391 66.1035 54.7051C66.0703 54.8691 66.0225 55.0215 65.96 55.1621C65.8936 55.3027 65.8115 55.4316 65.7139 55.5488C65.6162 55.666 65.5049 55.7637 65.3799 55.8418C65.2666 55.9102 65.1416 55.9629 65.0049 56C64.8701 56.0391 64.7246 56.0586 64.5684 56.0586C64.4023 56.0586 64.249 56.0371 64.1084 55.9941C63.9678 55.9512 63.8398 55.8906 63.7246 55.8125C63.6113 55.7305 63.5098 55.6318 63.4199 55.5166C63.3301 55.3994 63.2549 55.2676 63.1943 55.1211C63.1396 54.9863 63.0977 54.8398 63.0684 54.6816C63.041 54.5234 63.0273 54.3564 63.0273 54.1807V53.5596C63.0273 53.3721 63.043 53.1943 63.0742 53.0264C63.1074 52.8584 63.1553 52.7031 63.2178 52.5605C63.2783 52.4258 63.3516 52.3037 63.4375 52.1943C63.5254 52.085 63.626 51.9912 63.7393 51.9131C63.8506 51.8369 63.9756 51.7783 64.1143 51.7373C64.2529 51.6963 64.4033 51.6758 64.5654 51.6758C64.7295 51.6758 64.8828 51.6973 65.0254 51.7402C65.1699 51.7812 65.2998 51.8408 65.415 51.9189C65.5303 51.9932 65.6309 52.083 65.7168 52.1885C65.8047 52.2939 65.8799 52.4102 65.9424 52.5371C66.0107 52.6816 66.0625 52.8398 66.0977 53.0117C66.1348 53.1836 66.1533 53.3662 66.1533 53.5596V54.1807ZM65.3184 53.5537C65.3184 53.4443 65.3125 53.3408 65.3008 53.2432C65.291 53.1436 65.2744 53.0518 65.251 52.9678C65.2217 52.8623 65.1826 52.7686 65.1338 52.6865C65.085 52.6025 65.0273 52.5342 64.9609 52.4814C64.9082 52.4424 64.8486 52.4121 64.7822 52.3906C64.7178 52.3691 64.6455 52.3584 64.5654 52.3584C64.4893 52.3584 64.4199 52.3682 64.3574 52.3877C64.2969 52.4072 64.2422 52.4355 64.1934 52.4727C64.127 52.5273 64.0703 52.5957 64.0234 52.6777C63.9785 52.7598 63.9434 52.8555 63.918 52.9648C63.8984 53.0488 63.8838 53.1406 63.874 53.2402C63.8662 53.3398 63.8623 53.4443 63.8623 53.5537V54.1807C63.8623 54.2842 63.8662 54.3838 63.874 54.4795C63.8818 54.5752 63.8955 54.6641 63.915 54.7461C63.9365 54.8496 63.9678 54.9443 64.0088 55.0303C64.0518 55.1143 64.1016 55.1826 64.1582 55.2354C64.2109 55.2822 64.2705 55.3184 64.3369 55.3438C64.4053 55.3691 64.4824 55.3818 64.5684 55.3818C64.6504 55.3818 64.7256 55.3701 64.7939 55.3467C64.8623 55.3232 64.9229 55.2891 64.9756 55.2441C65.042 55.1895 65.0977 55.1211 65.1426 55.0391C65.1895 54.9551 65.2266 54.8604 65.2539 54.7549C65.2754 54.6729 65.291 54.583 65.3008 54.4854C65.3125 54.3877 65.3184 54.2861 65.3184 54.1807V53.5537ZM67.6621 55.335H69.6602V56H66.8359V51.7344H67.6621V55.335ZM73.2256 51.7344L73.2285 54.5615C73.2285 54.7998 73.1953 55.0117 73.1289 55.1973C73.0645 55.3828 72.9707 55.5391 72.8477 55.666C72.7227 55.7949 72.5703 55.8926 72.3906 55.959C72.2129 56.0254 72.0098 56.0586 71.7812 56.0586C71.5664 56.0586 71.3721 56.0254 71.1982 55.959C71.0264 55.8926 70.8789 55.7959 70.7559 55.6689C70.6328 55.542 70.5371 55.3857 70.4688 55.2002C70.4023 55.0127 70.3691 54.7998 70.3691 54.5615L70.3721 51.7344H71.1953L71.1982 54.5615C71.2002 54.7041 71.2139 54.8291 71.2393 54.9365C71.2666 55.0439 71.3066 55.1328 71.3594 55.2031C71.4082 55.2676 71.4678 55.3164 71.5381 55.3496C71.6084 55.3809 71.6895 55.3965 71.7812 55.3965C71.8809 55.3965 71.9688 55.3799 72.0449 55.3467C72.123 55.3115 72.1875 55.2598 72.2383 55.1914C72.293 55.1211 72.334 55.0332 72.3613 54.9277C72.3887 54.8223 72.4033 54.7002 72.4053 54.5615L72.4082 51.7344H73.2256ZM74.998 51.7344L75.4023 53.3369L75.8623 51.7344H76.8848V56H76.1289V54.7373L76.1641 52.7422L75.6045 54.5938H75.1973L74.6963 52.8213L74.7314 54.7373V56H73.9756V51.7344H74.998ZM80.2158 54.1309H78.4639V55.335H80.5117V56H77.6377V51.7344H80.5029V52.4053H78.4639V53.4805H80.2158V54.1309Z" fill="white"/>
</g>
<path opacity="0.3" d="M197 103H174.841C174.355 103 173.939 103.35 173.856 103.829L171.49 117.431C171.287 118.602 169.574 118.503 169.507 117.317L168.292 95.9318C168.221 94.6926 166.404 94.6657 166.297 95.9023L164.122 121.035C164.016 122.265 162.211 122.248 162.128 121.016L159.336 79.4441C159.253 78.2162 157.457 78.1929 157.342 79.4183L153.805 117.365C153.695 118.548 151.981 118.585 151.819 117.408L148.439 92.8317C148.282 91.6885 146.634 91.6763 146.46 92.8171L143.935 109.374C143.763 110.496 142.151 110.51 141.96 109.391L139.845 96.9642C139.661 95.8851 138.127 95.843 137.884 96.9103L136.677 102.222C136.573 102.677 136.169 103 135.702 103H115" stroke="white"/>
<g opacity="0.3">
<rect x="131.5" y="-24.5" width="57" height="81" rx="4.5" stroke="white"/>
<path d="M179 -15L141 2" stroke="white" stroke-opacity="0.2"/>
<path d="M141 -15L179 2" stroke="white" stroke-opacity="0.2"/>
<rect x="140.5" y="-15.5" width="39" height="18" rx="2.5" stroke="white"/>
<circle cx="160" cy="29" r="17.5" stroke="white"/>
<circle cx="160" cy="29" r="17.5" stroke="white"/>
<circle cx="160" cy="29" r="17.5" stroke="white"/>
<circle cx="160" cy="29" r="17.5" stroke="white"/>
<circle cx="160" cy="29" r="17.5" stroke="white"/>
<circle cx="160" cy="29" r="3.5" fill="white"/>
<circle cx="160" cy="29" r="3.5" stroke="white"/>
<circle cx="160" cy="29" r="3.5" stroke="white"/>
<circle cx="160" cy="29" r="3.5" stroke="white"/>
<circle cx="160" cy="29" r="3.5" stroke="white"/>
<circle cx="160" cy="29" r="3.5" stroke="white"/>
<circle cx="141" cy="2" r="1.5" fill="white"/>
<circle cx="141" cy="2" r="1.5" stroke="white"/>
<circle cx="141" cy="2" r="1.5" stroke="white"/>
<circle cx="141" cy="2" r="1.5" stroke="white"/>
<circle cx="141" cy="2" r="1.5" stroke="white"/>
<circle cx="141" cy="2" r="1.5" stroke="white"/>
<circle cx="179" cy="2" r="1.5" fill="white"/>
<circle cx="179" cy="2" r="1.5" stroke="white"/>
<circle cx="179" cy="2" r="1.5" stroke="white"/>
<circle cx="179" cy="2" r="1.5" stroke="white"/>
<circle cx="179" cy="2" r="1.5" stroke="white"/>
<circle cx="179" cy="2" r="1.5" stroke="white"/>
</g>
</g>
<defs>
<linearGradient id="paint0_linear_1024_89" x1="360" y1="-27" x2="360" y2="249" gradientUnits="userSpaceOnUse">
<stop stop-color="#DFFF93"/>
<stop offset="1" stop-color="#43531B"/>
</linearGradient>
<clipPath id="clip0_1024_89">
<rect width="450" height="150" fill="white"/>
</clipPath>
</defs>
</svg>
