<svg width="195" height="40" viewBox="0 0 195 40" fill="none" xmlns="http://www.w3.org/2000/svg">
<path d="M11.9134 39.458L0 0H8.3935L15.0812 25.7724L15.7581 28.4282L16.4892 25.7453L23.204 0H31.5975L19.657 39.458H11.9134Z" fill="white"/>
<path d="M54.6119 0H62.2202L62.2473 27.3442C62.2292 29.2231 61.8682 30.9395 61.1643 32.4932C60.4783 34.0289 59.5307 35.3568 58.3213 36.477C57.1119 37.5971 55.6859 38.4643 54.0433 39.0786C52.4188 39.6929 50.6679 40 48.7906 40C46.8051 40 45 39.7471 43.3755 39.2412C41.7509 38.7353 40.361 37.9765 39.2058 36.9648C38.0325 35.9711 37.1209 34.7154 36.4711 33.1978C35.8213 31.6802 35.4874 29.9006 35.4693 27.8591H43.1047C43.1047 28.7986 43.1949 29.6206 43.3755 30.3252C43.556 31.0298 43.8267 31.626 44.1877 32.1138C44.657 32.71 45.2708 33.1527 46.0289 33.4417C46.787 33.7308 47.7076 33.8753 48.7906 33.8753C49.657 33.8753 50.4513 33.7127 51.1733 33.3875C51.8953 33.0443 52.509 32.5836 53.0144 32.0054C53.5199 31.4273 53.9079 30.7407 54.1787 29.9458C54.4675 29.1328 54.6119 28.2656 54.6119 27.3442V0Z" fill="white"/>
<path d="M69.1516 39.458V0H79.3592C81.1823 0 82.8881 0.225836 84.4765 0.677507C86.065 1.11111 87.509 1.73442 88.8087 2.54743C89.9458 3.2159 90.9567 4.03794 91.8412 5.01355C92.7437 5.97109 93.5289 7.01897 94.1968 8.15718C94.9729 9.54833 95.5686 11.084 95.9838 12.7642C96.417 14.4444 96.6336 16.2331 96.6336 18.1301V21.3821C96.6336 23.2069 96.435 24.9322 96.0379 26.5583C95.6408 28.1843 95.0812 29.6748 94.3592 31.0298C93.6733 32.2403 92.87 33.3604 91.9495 34.3902C91.0289 35.402 90.0181 36.2511 88.917 36.9377C87.6354 37.7507 86.2184 38.374 84.6661 38.8076C83.1318 39.2412 81.4892 39.458 79.7383 39.458H69.1516ZM76.8141 6.17886V33.3333H79.7383C80.6769 33.3333 81.5523 33.2159 82.3646 32.981C83.1769 32.7462 83.917 32.4029 84.5848 31.9512C85.2708 31.4815 85.8845 30.8853 86.426 30.1626C86.9856 29.4219 87.4639 28.5637 87.861 27.5881C88.1859 26.7389 88.4296 25.7995 88.5921 24.7696C88.7726 23.7218 88.8628 22.5926 88.8628 21.3821V18.0759C88.8628 16.9377 88.7726 15.8627 88.5921 14.8509C88.4296 13.8211 88.1859 12.8817 87.861 12.0325C87.4639 11.0208 86.9404 10.1174 86.2906 9.32249C85.6588 8.52755 84.9188 7.87715 84.0704 7.37127C83.4206 6.99187 82.6986 6.7028 81.9043 6.50407C81.1282 6.28726 80.2798 6.17886 79.3592 6.17886H76.8141Z" fill="white"/>
<path d="M116.074 18.1843L123.845 0H132.211L119.81 25.7995L119.783 39.458H112.202L112.175 25.4743L99.9639 0H108.303L116.074 18.1843Z" fill="white"/>
<path d="M158.745 21.0298H141.309V39.458H138.087V0H161.372V2.87263H141.309V18.1572H158.745V21.0298Z" fill="white"/>
<path d="M174.368 0L182.301 22.2764L190.776 0H195V39.458H191.859V21.9783L192.076 4.60705L183.33 27.5881H181.218L173.15 5.01355L173.366 21.9783V39.458H170.199V0H174.368Z" fill="white"/>
</svg>
