<svg width="96" height="96" viewBox="0 0 96 96" fill="none" xmlns="http://www.w3.org/2000/svg">
<g clip-path="url(#clip0_1011_6)">
<path d="M14.0589 81.9411C7.34595 75.2282 2.7744 66.6754 0.922306 57.3643C-0.929784 48.0532 0.0207761 38.4021 3.65378 29.6312C7.28679 20.8603 13.4391 13.3638 21.3326 8.08946C29.2262 2.81515 38.5065 -1.13209e-07 48 0C57.4935 1.13209e-07 66.7738 2.81515 74.6674 8.08946C82.5609 13.3638 88.7132 20.8603 92.3462 29.6312C95.9792 38.4021 96.9298 48.0532 95.0777 57.3643C93.2256 66.6754 88.654 75.2282 81.9411 81.9411L80.5069 80.5069C86.9362 74.0777 91.3146 65.8863 93.0884 56.9686C94.8623 48.051 93.9519 38.8076 90.4724 30.4074C86.9929 22.0071 81.1006 14.8273 73.5405 9.77589C65.9805 4.72444 57.0924 2.02825 48 2.02825C38.9076 2.02825 30.0195 4.72444 22.4595 9.77588C14.8994 14.8273 9.00713 22.0071 5.52764 30.4074C2.04815 38.8076 1.13775 48.051 2.91158 56.9686C4.68541 65.8863 9.0638 74.0777 15.4931 80.5069L14.0589 81.9411Z" fill="white" fill-opacity="0.2"/>
</g>
<defs>
<clipPath id="clip0_1011_6">
<rect width="96" height="96" fill="white"/>
</clipPath>
</defs>
</svg>
